# xmcd
#
# Track frame offsets:
#	150
#	18910
#	36197
#	61965
#	82125
#	92715
#	114980
#	138007
#	157060
#	173620
#	184417
#	205595
#	232773
#	249874
#	273068
#
# Disc length: 3998 seconds
#
# Revision: 4
# Processed by: cddbd v1.5.2PL0 Copyright (c) Steve Scherf et al.
# Submitted via: audiograbber 1.83.01
#
DISCID=b50f9c0f
DTITLE=Dixie Chicks - Home [HDCD]
DYEAR=2003
DGENRE=Country/Folk
TTITLE0=Long Time Gone
TTITLE1=Landslide
TTITLE2=Travelin' Soldier
TTITLE3=Truth No. 2
TTITLE4=White Trash Wedding
TTITLE5=A Home
TTITLE6=More Love
TTITLE7=I Believe In Love
TTITLE8=Tortured, Tangled Hearts
TTITLE9=Lil' Jack Slade
TTITLE10=Godspeed (Sweet Dreams)
TTITLE11=Top Of The World
TTITLE12=Landslide [Sheryl Crow remix]
TTITLE13=Travelin' Soldier [re-record]
TTITLE14=Top Of The World [Greg Collins remix]
EXTD=
EXTT0=
EXTT1=
EXTT2=
EXTT3=
EXTT4=
EXTT5=
EXTT6=
EXTT7=
EXTT8=
EXTT9=
EXTT10=
EXTT11=
EXTT12=
EXTT13=
EXTT14=
PLAYORDER=
